<?xml version="1.0" encoding="UTF-8" standalone="no"?>
<!-- Created with Inkscape (http://www.inkscape.org/) -->
<svg
   xmlns:svg="http://www.w3.org/2000/svg"
   xmlns="http://www.w3.org/2000/svg"
   version="1.0"
   width="400"
   height="400"
   id="svg2"
   xml:space="preserve"><defs
     id="defs5"><clipPath
       id="clipPath955"><path
         d="M 56.693,115.795 L 86.032,115.795 L 86.032,141.307 L 56.693,141.307 L 56.693,115.795 z"
         id="path957" /></clipPath></defs><g
     transform="matrix(1.25,0,0,-1.25,-70.907758,525.57728)"
     id="g11"><g
       transform="matrix(12.649274,0,0,12.649274,-652.81904,-1374.4214)"
       id="g951"><g
         clip-path="url(#clipPath955)"
         id="g953"><g
           transform="translate(60.6582,120.6377)"
           id="g959"><path
             d="M 0,0 C 0.027,-0.027 0.07,-0.026 0.097,0 C 0.123,0.027 0.124,0.07 0.098,0.097 C -2.749,3.094 -4.693,7.973 -0.803,11.862 C 2.508,15.174 6.46,12.474 9.635,10.304 C 11.732,8.87 13.543,7.633 14.56,8.648 C 16.082,10.171 14.245,12.245 13.645,12.845 L 13.367,13.111 C 13.34,13.137 13.298,13.136 13.272,13.11 C 13.245,13.084 13.244,13.041 13.269,13.014 C 14.278,11.896 14.482,10.83 13.814,10.161 C 12.771,9.119 10.966,10.35 8.876,11.775 C 5.691,13.948 1.726,16.651 -1.815,13.11 C -2.932,11.993 -3.64,10.754 -3.932,9.413 C -3.411,15.691 1.846,20.626 8.259,20.626 C 13.948,20.626 18.73,16.743 20.101,11.484 C 19.333,13.622 17.856,15.357 16.86,16.354 L 16.519,16.687 C 16.492,16.713 16.449,16.713 16.422,16.687 C 16.396,16.66 16.395,16.617 16.421,16.59 C 19.268,13.593 21.213,8.714 17.322,4.824 C 14.011,1.513 10.059,4.213 6.884,6.383 C 4.787,7.816 2.976,9.054 1.959,8.038 C 1.567,7.645 1.367,7.183 1.367,6.665 C 1.367,3.246 2.577,-0.132 4.578,-3.135 C 4.644,-3.204 4.709,-3.272 4.773,-3.341 C 0.81,-2.165 -2.313,0.963 -3.48,4.93 C -2.689,2.917 -1.295,1.287 -0.341,0.333 L 0,0 z"
             id="path961"
             style="fill:#007b83;fill-opacity:1;fill-rule:nonzero;stroke:none" /></g><g
           transform="translate(65.9435,122.3894)"
           id="g963"><path
             d="M 0,0 L -1.01,0 L 0.564,-5.044 L 1.272,-5.044 L 2.204,-1.81 L 2.217,-1.81 L 3.201,-5.044 L 3.909,-5.044 L 5.582,0 L 4.572,0 L 3.601,-3.372 L 3.588,-3.372 L 2.565,0.066 L 1.994,0.066 L 1.01,-3.372 L 0.997,-3.372 L 0,0 z"
             id="path965"
             style="fill:#007b83;fill-opacity:1;fill-rule:nonzero;stroke:none" /></g><g
           transform="translate(74.6537,121.9696)"
           id="g967"><path
             d="M 0,0 C -0.302,0.335 -0.912,0.551 -1.351,0.551 C -2.184,0.551 -2.794,-0.111 -2.794,-0.931 C -2.794,-1.699 -2.329,-2.02 -1.692,-2.283 C -1.305,-2.434 -0.833,-2.578 -0.833,-3.089 C -0.833,-3.47 -1.076,-3.804 -1.469,-3.804 C -1.883,-3.804 -2.23,-3.463 -2.361,-3.083 L -2.985,-3.693 C -2.643,-4.264 -2.145,-4.657 -1.463,-4.657 C -0.453,-4.657 0.164,-3.955 0.164,-2.965 C 0.164,-1.305 -1.797,-1.653 -1.797,-0.82 C -1.797,-0.499 -1.502,-0.262 -1.194,-0.262 C -0.872,-0.262 -0.636,-0.42 -0.453,-0.669 L 0,0 z"
             id="path969"
             style="fill:#007b83;fill-opacity:1;fill-rule:nonzero;stroke:none" /></g><g
           transform="translate(76.7773,122.3894)"
           id="g971"><path
             d="M 0,0 L -0.964,0 L -0.964,-5.044 L 1.364,-5.044 L 1.364,-4.205 L 0,-4.205 L 0,0 z"
             id="path973"
             style="fill:#007b83;fill-opacity:1;fill-rule:nonzero;stroke:none" /></g></g></g></g></svg>